<?xml version="1.0" encoding="UTF-8" standalone="no"?>
<!DOCTYPE svg PUBLIC "-//W3C//DTD SVG 1.1//EN"
 "http://www.w3.org/Graphics/SVG/1.1/DTD/svg11.dtd">
<!-- Generated by graphviz version 2.38.0 (20140413.2041)
 -->
<!-- Title: G Pages: 1 -->
<svg width="521pt" height="1168pt"
 viewBox="0.00 0.00 521.18 1168.00" xmlns="http://www.w3.org/2000/svg" xmlns:xlink="http://www.w3.org/1999/xlink">
<g id="graph0" class="graph" transform="scale(1 1) rotate(0) translate(4 1164)">
<title>G</title>
<polygon fill="white" stroke="none" points="-4,4 -4,-1164 517.175,-1164 517.175,4 -4,4"/>
<g id="clust1" class="cluster"><title>cluster_Global</title>
<path fill="none" stroke="gray" d="M91.5877,-98C91.5877,-98 493.175,-98 493.175,-98 499.175,-98 505.175,-104 505.175,-110 505.175,-110 505.175,-1140 505.175,-1140 505.175,-1146 499.175,-1152 493.175,-1152 493.175,-1152 91.5877,-1152 91.5877,-1152 85.5877,-1152 79.5877,-1146 79.5877,-1140 79.5877,-1140 79.5877,-110 79.5877,-110 79.5877,-104 85.5877,-98 91.5877,-98"/>
<text text-anchor="middle" x="292.381" y="-1139.2" font-family="Times,serif" font-size="11.00" fill="gray">Global</text>
</g>
<g id="clust2" class="cluster"><title>cluster_\Vinter</title>
<path fill="none" stroke="gray" d="M99.5877,-106C99.5877,-106 485.175,-106 485.175,-106 491.175,-106 497.175,-112 497.175,-118 497.175,-118 497.175,-1112 497.175,-1112 497.175,-1118 491.175,-1124 485.175,-1124 485.175,-1124 99.5877,-1124 99.5877,-1124 93.5877,-1124 87.5877,-1118 87.5877,-1112 87.5877,-1112 87.5877,-118 87.5877,-118 87.5877,-112 93.5877,-106 99.5877,-106"/>
<text text-anchor="middle" x="292.381" y="-1111.2" font-family="Times,serif" font-size="11.00" fill="gray">Vinter</text>
</g>
<g id="clust3" class="cluster"><title>cluster_\Vinter\App</title>
<path fill="none" stroke="gray" d="M392.675,-1024C392.675,-1024 438.675,-1024 438.675,-1024 444.675,-1024 450.675,-1030 450.675,-1036 450.675,-1036 450.675,-1084 450.675,-1084 450.675,-1090 444.675,-1096 438.675,-1096 438.675,-1096 392.675,-1096 392.675,-1096 386.675,-1096 380.675,-1090 380.675,-1084 380.675,-1084 380.675,-1036 380.675,-1036 380.675,-1030 386.675,-1024 392.675,-1024"/>
<text text-anchor="middle" x="415.675" y="-1083.2" font-family="Times,serif" font-size="11.00" fill="gray">App</text>
</g>
<g id="clust4" class="cluster"><title>cluster_\Vinter\Calendar</title>
<path fill="none" stroke="gray" d="M384.175,-944C384.175,-944 447.175,-944 447.175,-944 453.175,-944 459.175,-950 459.175,-956 459.175,-956 459.175,-1004 459.175,-1004 459.175,-1010 453.175,-1016 447.175,-1016 447.175,-1016 384.175,-1016 384.175,-1016 378.175,-1016 372.175,-1010 372.175,-1004 372.175,-1004 372.175,-956 372.175,-956 372.175,-950 378.175,-944 384.175,-944"/>
<text text-anchor="middle" x="415.675" y="-1003.2" font-family="Times,serif" font-size="11.00" fill="gray">Calendar</text>
</g>
<g id="clust5" class="cluster"><title>cluster_\Vinter\Cookie</title>
<path fill="none" stroke="gray" d="M391.175,-864C391.175,-864 440.175,-864 440.175,-864 446.175,-864 452.175,-870 452.175,-876 452.175,-876 452.175,-924 452.175,-924 452.175,-930 446.175,-936 440.175,-936 440.175,-936 391.175,-936 391.175,-936 385.175,-936 379.175,-930 379.175,-924 379.175,-924 379.175,-876 379.175,-876 379.175,-870 385.175,-864 391.175,-864"/>
<text text-anchor="middle" x="415.675" y="-923.2" font-family="Times,serif" font-size="11.00" fill="gray">Cookie</text>
</g>
<g id="clust6" class="cluster"><title>cluster_\Vinter\Database</title>
<path fill="none" stroke="gray" d="M107.588,-514C107.588,-514 477.175,-514 477.175,-514 483.175,-514 489.175,-520 489.175,-526 489.175,-526 489.175,-844 489.175,-844 489.175,-850 483.175,-856 477.175,-856 477.175,-856 107.588,-856 107.588,-856 101.588,-856 95.5877,-850 95.5877,-844 95.5877,-844 95.5877,-526 95.5877,-526 95.5877,-520 101.588,-514 107.588,-514"/>
<text text-anchor="middle" x="292.381" y="-843.2" font-family="Times,serif" font-size="11.00" fill="gray">Database</text>
</g>
<g id="clust7" class="cluster"><title>cluster_\Vinter\Helpers</title>
<path fill="none" stroke="gray" d="M387.675,-434C387.675,-434 443.675,-434 443.675,-434 449.675,-434 455.675,-440 455.675,-446 455.675,-446 455.675,-494 455.675,-494 455.675,-500 449.675,-506 443.675,-506 443.675,-506 387.675,-506 387.675,-506 381.675,-506 375.675,-500 375.675,-494 375.675,-494 375.675,-446 375.675,-446 375.675,-440 381.675,-434 387.675,-434"/>
<text text-anchor="middle" x="415.675" y="-493.2" font-family="Times,serif" font-size="11.00" fill="gray">Helpers</text>
</g>
<g id="clust8" class="cluster"><title>cluster_\Vinter\Navbar</title>
<path fill="none" stroke="gray" d="M391.175,-354C391.175,-354 440.175,-354 440.175,-354 446.175,-354 452.175,-360 452.175,-366 452.175,-366 452.175,-414 452.175,-414 452.175,-420 446.175,-426 440.175,-426 440.175,-426 391.175,-426 391.175,-426 385.175,-426 379.175,-420 379.175,-414 379.175,-414 379.175,-366 379.175,-366 379.175,-360 385.175,-354 391.175,-354"/>
<text text-anchor="middle" x="415.675" y="-413.2" font-family="Times,serif" font-size="11.00" fill="gray">Navbar</text>
</g>
<g id="clust9" class="cluster"><title>cluster_\Vinter\Session</title>
<path fill="none" stroke="gray" d="M387.675,-274C387.675,-274 443.675,-274 443.675,-274 449.675,-274 455.675,-280 455.675,-286 455.675,-286 455.675,-334 455.675,-334 455.675,-340 449.675,-346 443.675,-346 443.675,-346 387.675,-346 387.675,-346 381.675,-346 375.675,-340 375.675,-334 375.675,-334 375.675,-286 375.675,-286 375.675,-280 381.675,-274 387.675,-274"/>
<text text-anchor="middle" x="415.675" y="-333.2" font-family="Times,serif" font-size="11.00" fill="gray">Session</text>
</g>
<g id="clust10" class="cluster"><title>cluster_\Vinter\Textfilter</title>
<path fill="none" stroke="gray" d="M377.675,-194C377.675,-194 453.675,-194 453.675,-194 459.675,-194 465.675,-200 465.675,-206 465.675,-206 465.675,-254 465.675,-254 465.675,-260 459.675,-266 453.675,-266 453.675,-266 377.675,-266 377.675,-266 371.675,-266 365.675,-260 365.675,-254 365.675,-254 365.675,-206 365.675,-206 365.675,-200 371.675,-194 377.675,-194"/>
<text text-anchor="middle" x="415.675" y="-253.2" font-family="Times,serif" font-size="11.00" fill="gray">Textfilter</text>
</g>
<g id="clust11" class="cluster"><title>cluster_\Vinter\User</title>
<path fill="none" stroke="gray" d="M392.675,-114C392.675,-114 438.675,-114 438.675,-114 444.675,-114 450.675,-120 450.675,-126 450.675,-126 450.675,-174 450.675,-174 450.675,-180 444.675,-186 438.675,-186 438.675,-186 392.675,-186 392.675,-186 386.675,-186 380.675,-180 380.675,-174 380.675,-174 380.675,-126 380.675,-126 380.675,-120 386.675,-114 392.675,-114"/>
<text text-anchor="middle" x="415.675" y="-173.2" font-family="Times,serif" font-size="11.00" fill="gray">User</text>
</g>
<!-- \\Vinter\\App\\App -->
<g id="node1" class="node"><title>\\Vinter\\App\\App</title>
<polygon fill="none" stroke="black" points="442.675,-1068 388.675,-1068 388.675,-1032 442.675,-1032 442.675,-1068"/>
<text text-anchor="middle" x="415.675" y="-1047.2" font-family="Courier,monospace" font-size="11.00">App</text>
</g>
<!-- \\Vinter\\Calendar\\Calendar -->
<g id="node2" class="node"><title>\\Vinter\\Calendar\\Calendar</title>
<polygon fill="none" stroke="black" points="451.175,-988 380.175,-988 380.175,-952 451.175,-952 451.175,-988"/>
<text text-anchor="middle" x="415.675" y="-967.2" font-family="Courier,monospace" font-size="11.00">Calendar</text>
</g>
<!-- \\Vinter\\Cookie\\Cookie -->
<g id="node3" class="node"><title>\\Vinter\\Cookie\\Cookie</title>
<polygon fill="none" stroke="black" points="444.175,-908 387.175,-908 387.175,-872 444.175,-872 444.175,-908"/>
<text text-anchor="middle" x="415.675" y="-887.2" font-family="Courier,monospace" font-size="11.00">Cookie</text>
</g>
<!-- \\Vinter\\Database\\Database -->
<g id="node4" class="node"><title>\\Vinter\\Database\\Database</title>
<polygon fill="none" stroke="black" points="174.588,-801 103.588,-801 103.588,-765 174.588,-765 174.588,-801"/>
<text text-anchor="middle" x="139.088" y="-780.2" font-family="Courier,monospace" font-size="11.00">Database</text>
</g>
<!-- \\Vinter\\Database\\DatabaseConfigure -->
<g id="node5" class="node"><title>\\Vinter\\Database\\DatabaseConfigure</title>
<polygon fill="none" stroke="black" points="481.175,-774 350.175,-774 350.175,-738 481.175,-738 481.175,-774"/>
<text text-anchor="middle" x="415.675" y="-753.2" font-family="Courier,monospace" font-size="11.00">DatabaseConfigure</text>
</g>
<!-- \\Vinter\\Database\\DatabaseConfigure&#45;&gt;\\Vinter\\Database\\Database -->
<g id="edge1" class="edge"><title>\\Vinter\\Database\\DatabaseConfigure&#45;&gt;\\Vinter\\Database\\Database</title>
<path fill="none" stroke="black" d="M349.95,-762.364C299.054,-767.369 229.488,-774.209 184.666,-778.617"/>
<polygon fill="none" stroke="black" points="184.273,-775.138 174.663,-779.6 184.958,-782.105 184.273,-775.138"/>
</g>
<!-- \\Anax\\Common\\ConfigureInterface -->
<g id="node16" class="node"><title>\\Anax\\Common\\ConfigureInterface</title>
<ellipse fill="none" stroke="black" cx="139.088" cy="-72" rx="139.175" ry="18"/>
<text text-anchor="middle" x="139.088" y="-68.3" font-family="Times,serif" font-size="14.00" fill="gray">\Anax\Common\ConfigureInterface</text>
</g>
<!-- \\Vinter\\Database\\DatabaseConfigure&#45;&gt;\\Anax\\Common\\ConfigureInterface -->
<g id="edge2" class="edge"><title>\\Vinter\\Database\\DatabaseConfigure&#45;&gt;\\Anax\\Common\\ConfigureInterface</title>
<path fill="none" stroke="black" stroke-dasharray="1,5" d="M360.491,-737.798C356.715,-735.229 353.21,-732.311 350.175,-729 344.506,-722.815 187.635,-223.561 148.746,-99.6128"/>
<polygon fill="none" stroke="black" points="152.085,-98.5623 145.752,-90.0684 145.406,-100.658 152.085,-98.5623"/>
</g>
<!-- \\Vinter\\Database\\DatabaseDebug -->
<g id="node6" class="node"><title>\\Vinter\\Database\\DatabaseDebug</title>
<polygon fill="none" stroke="black" points="467.675,-828 363.675,-828 363.675,-792 467.675,-792 467.675,-828"/>
<text text-anchor="middle" x="415.675" y="-807.2" font-family="Courier,monospace" font-size="11.00">DatabaseDebug</text>
</g>
<!-- \\Vinter\\Database\\DatabaseDebug&#45;&gt;\\Vinter\\Database\\Database -->
<g id="edge3" class="edge"><title>\\Vinter\\Database\\DatabaseDebug&#45;&gt;\\Vinter\\Database\\Database</title>
<path fill="none" stroke="black" d="M363.671,-804.985C312.268,-799.93 233.728,-792.208 184.722,-787.389"/>
<polygon fill="none" stroke="black" points="185.027,-783.902 174.733,-786.407 184.342,-790.869 185.027,-783.902"/>
</g>
<!-- \\Vinter\\Database\\Exception -->
<g id="node7" class="node"><title>\\Vinter\\Database\\Exception</title>
<polygon fill="none" stroke="black" points="454.175,-720 377.175,-720 377.175,-684 454.175,-684 454.175,-720"/>
<text text-anchor="middle" x="415.675" y="-699.2" font-family="Courier,monospace" font-size="11.00">Exception</text>
</g>
<!-- \\Exception -->
<g id="node17" class="node"><title>\\Exception</title>
<ellipse fill="none" stroke="black" cx="139.088" cy="-18" rx="50.0912" ry="18"/>
<text text-anchor="middle" x="139.088" y="-14.3" font-family="Times,serif" font-size="14.00" fill="gray">\Exception</text>
</g>
<!-- \\Vinter\\Database\\Exception&#45;&gt;\\Exception -->
<g id="edge4" class="edge"><title>\\Vinter\\Database\\Exception&#45;&gt;\\Exception</title>
<path fill="none" stroke="black" d="M377.098,-693.819C366.876,-689.799 356.809,-683.834 350.175,-675 180.953,-449.639 469.398,-252.021 278.175,-45 258.173,-23.3453 226.343,-16.1068 198.281,-14.505"/>
<polygon fill="none" stroke="black" points="198.258,-11.0022 188.142,-14.1536 198.015,-17.998 198.258,-11.0022"/>
</g>
<!-- \\Vinter\\Database\\QueryContent -->
<g id="node8" class="node"><title>\\Vinter\\Database\\QueryContent</title>
<polygon fill="none" stroke="black" points="464.675,-666 366.675,-666 366.675,-630 464.675,-630 464.675,-666"/>
<text text-anchor="middle" x="415.675" y="-645.2" font-family="Courier,monospace" font-size="11.00">QueryContent</text>
</g>
<!-- \\Vinter\\Database\\QueryLogin -->
<g id="node9" class="node"><title>\\Vinter\\Database\\QueryLogin</title>
<polygon fill="none" stroke="black" points="457.675,-612 373.675,-612 373.675,-576 457.675,-576 457.675,-612"/>
<text text-anchor="middle" x="415.675" y="-591.2" font-family="Courier,monospace" font-size="11.00">QueryLogin</text>
</g>
<!-- \\Vinter\\Database\\QueryWebshop -->
<g id="node10" class="node"><title>\\Vinter\\Database\\QueryWebshop</title>
<polygon fill="none" stroke="black" points="464.675,-558 366.675,-558 366.675,-522 464.675,-522 464.675,-558"/>
<text text-anchor="middle" x="415.675" y="-537.2" font-family="Courier,monospace" font-size="11.00">QueryWebshop</text>
</g>
<!-- \\Vinter\\Helpers\\Helpers -->
<g id="node11" class="node"><title>\\Vinter\\Helpers\\Helpers</title>
<polygon fill="none" stroke="black" points="447.675,-478 383.675,-478 383.675,-442 447.675,-442 447.675,-478"/>
<text text-anchor="middle" x="415.675" y="-457.2" font-family="Courier,monospace" font-size="11.00">Helpers</text>
</g>
<!-- \\Vinter\\Navbar\\Navbar -->
<g id="node12" class="node"><title>\\Vinter\\Navbar\\Navbar</title>
<polygon fill="none" stroke="black" points="444.175,-398 387.175,-398 387.175,-362 444.175,-362 444.175,-398"/>
<text text-anchor="middle" x="415.675" y="-377.2" font-family="Courier,monospace" font-size="11.00">Navbar</text>
</g>
<!-- \\Vinter\\Navbar\\Navbar&#45;&gt;\\Anax\\Common\\ConfigureInterface -->
<g id="edge5" class="edge"><title>\\Vinter\\Navbar\\Navbar&#45;&gt;\\Anax\\Common\\ConfigureInterface</title>
<path fill="none" stroke="black" stroke-dasharray="1,5" d="M386.944,-370.584C374.87,-365.643 361.031,-358.77 350.175,-350 258.281,-275.765 184.339,-153.026 154.431,-98.9745"/>
<polygon fill="none" stroke="black" points="157.395,-97.1004 149.525,-90.0068 151.254,-100.46 157.395,-97.1004"/>
</g>
<!-- \\Vinter\\Session\\Session -->
<g id="node13" class="node"><title>\\Vinter\\Session\\Session</title>
<polygon fill="none" stroke="black" points="447.675,-318 383.675,-318 383.675,-282 447.675,-282 447.675,-318"/>
<text text-anchor="middle" x="415.675" y="-297.2" font-family="Courier,monospace" font-size="11.00">Session</text>
</g>
<!-- \\Vinter\\Textfilter\\Textfilter -->
<g id="node14" class="node"><title>\\Vinter\\Textfilter\\Textfilter</title>
<polygon fill="none" stroke="black" points="457.675,-238 373.675,-238 373.675,-202 457.675,-202 457.675,-238"/>
<text text-anchor="middle" x="415.675" y="-217.2" font-family="Courier,monospace" font-size="11.00">Textfilter</text>
</g>
<!-- \\Vinter\\User\\User -->
<g id="node15" class="node"><title>\\Vinter\\User\\User</title>
<polygon fill="none" stroke="black" points="442.675,-158 388.675,-158 388.675,-122 442.675,-122 442.675,-158"/>
<text text-anchor="middle" x="415.675" y="-137.2" font-family="Courier,monospace" font-size="11.00">User</text>
</g>
</g>
</svg>
